<svg xmlns="http://www.w3.org/2000/svg" width="400.776" height="487.501" viewBox="0 0 400.776 487.501">
  <g id="Group_432" data-name="Group 432" transform="translate(-103.63 -132.697)">
    <rect id="Rectangle_192" data-name="Rectangle 192" width="10.099" height="115.049" transform="translate(315.842 439.478)" fill="#585c5e"/>
    <rect id="Rectangle_193" data-name="Rectangle 193" width="119.818" height="4.746" transform="translate(360.836 266.968)" fill="#b0c8d9"/>
    <path id="Path_2812" data-name="Path 2812" d="M211.724,123.714l12.858,13.817-3.507,3.25-12.834-13.84Z" transform="translate(168.259 170.35)" fill="#b0c8d9" fill-rule="evenodd"/>
    <path id="Path_2813" data-name="Path 2813" d="M203.505,118.108l1.1,4.863,1.122,4.886,3.67-3.413,3.67-3.39-4.792-1.473Z" transform="translate(168.926 171.14)" fill="#b0c8d9" fill-rule="evenodd"/>
    <path id="Path_2814" data-name="Path 2814" d="M312.836,123.714l-12.858,13.817,3.483,3.25,12.858-13.84Z" transform="translate(155.332 170.35)" fill="#b0c8d9" fill-rule="evenodd"/>
    <path id="Path_2815" data-name="Path 2815" d="M322.168,118.108l-1.122,4.863-1.123,4.886-3.669-3.413-3.648-3.39,4.769-1.473Z" transform="translate(153.553 171.14)" fill="#b0c8d9" fill-rule="evenodd"/>
    <path id="Path_2816" data-name="Path 2816" d="M237.756,485.041H103.63c.748-.841,38.319-50.709,41.918-50.709H329.987c3.6,0,41.169,49.868,41.894,50.709H237.756Z" transform="translate(0 -53.419)" fill="#a4aaae" fill-rule="evenodd"/>
    <path id="Path_2817" data-name="Path 2817" d="M103.63,501.214H371.881v-7.855H103.63Z" transform="translate(0 -61.737)" fill="#858a8d" fill-rule="evenodd"/>
    <path id="Path_2818" data-name="Path 2818" d="M243.042,232.488H338.92a22.2,22.2,0,0,1,22.14,22.116V371.593a22.2,22.2,0,0,1-22.14,22.116H147.164a22.191,22.191,0,0,1-22.117-22.116V254.6a22.191,22.191,0,0,1,22.117-22.116Z" transform="translate(-3.018 -24.977)" fill="#282c37" fill-rule="evenodd"/>
    <path id="Path_2819" data-name="Path 2819" d="M244.8,246.394h94.475a12.845,12.845,0,0,1,12.811,12.812V376.92a8.675,8.675,0,0,1-8.649,8.65H146.186a8.681,8.681,0,0,1-8.675-8.65V259.206a12.867,12.867,0,0,1,12.836-12.812Z" transform="translate(-4.774 -26.937)" fill="#86aac4" fill-rule="evenodd"/>
    <rect id="Rectangle_194" data-name="Rectangle 194" width="35.256" height="6.92" transform="translate(301.721 328.217)" fill="#f92f4d"/>
    <rect id="Rectangle_195" data-name="Rectangle 195" width="47.297" height="6.92" transform="translate(245.4 328.217)" fill="#b0c8d9"/>
    <rect id="Rectangle_196" data-name="Rectangle 196" width="97.795" height="6.943" transform="translate(239.182 340.328)" fill="#6c8aa7"/>
    <rect id="Rectangle_197" data-name="Rectangle 197" width="76.216" height="76.193" transform="translate(261.463 233.204)" fill="#6c8aa7"/>
    <rect id="Rectangle_198" data-name="Rectangle 198" width="45.52" height="12.367" transform="translate(267.658 255.228)" fill="#b0c8d9"/>
    <rect id="Rectangle_199" data-name="Rectangle 199" width="65.299" height="12.367" transform="translate(267.658 272.294)" fill="#b0c8d9"/>
    <rect id="Rectangle_200" data-name="Rectangle 200" width="45.52" height="12.367" transform="translate(267.658 289.361)" fill="#b0c8d9"/>
    <path id="Path_2820" data-name="Path 2820" d="M356.883,269.949l1.589-1.566,4.373,4.372,4.371-4.372,1.567,1.566-4.373,4.4,4.373,4.372-1.567,1.566-4.371-4.372-4.373,4.372-1.589-1.566,4.371-4.372Z" transform="translate(-35.686 -30.035)" fill="#b0c8d9" fill-rule="evenodd"/>
    <path id="Path_2821" data-name="Path 2821" d="M341.042,267.975h11.783v12.6H340.2v-12.6Zm9.538,2.385h-7.995v7.831h7.995Z" transform="translate(-33.336 -29.978)" fill="#b0c8d9"/>
    <rect id="Rectangle_201" data-name="Rectangle 201" width="11.549" height="2.384" transform="translate(293.82 248.214)" fill="#b0c8d9"/>
    <rect id="Rectangle_202" data-name="Rectangle 202" width="64.339" height="6.92" transform="translate(136.127 279.214)" fill="#6c8aa7"/>
    <rect id="Rectangle_203" data-name="Rectangle 203" width="64.339" height="6.92" transform="translate(136.127 291.348)" fill="#f92f4d"/>
    <rect id="Rectangle_204" data-name="Rectangle 204" width="15.968" height="6.944" transform="translate(136.127 305.188)" fill="#6c8aa7"/>
    <rect id="Rectangle_205" data-name="Rectangle 205" width="22.326" height="6.944" transform="translate(155.999 305.188)" fill="#f92f4d"/>
    <rect id="Rectangle_206" data-name="Rectangle 206" width="22.327" height="6.944" transform="translate(184.288 305.188)" fill="#b0c8d9"/>
    <rect id="Rectangle_207" data-name="Rectangle 207" width="35.256" height="6.92" transform="translate(136.127 316.831)" fill="#b0c8d9"/>
    <rect id="Rectangle_208" data-name="Rectangle 208" width="35.256" height="6.92" transform="translate(177.508 316.831)" fill="#f92f4d"/>
    <rect id="Rectangle_209" data-name="Rectangle 209" width="48.137" height="6.944" transform="translate(152.329 266.59)" fill="#6c8aa7"/>
    <rect id="Rectangle_210" data-name="Rectangle 210" width="8.159" height="6.944" transform="translate(136.011 266.59)" fill="#f92f4d"/>
    <rect id="Rectangle_211" data-name="Rectangle 211" width="35.256" height="6.944" transform="translate(136.127 254.713)" fill="#b0c8d9"/>
    <path id="Path_2822" data-name="Path 2822" d="M272.209,658.73q17.5-.035,17.513-.046a15.912,15.912,0,0,0,.676,7.668q5.437,10.415-.419,12.227a159.037,159.037,0,0,1-18.354,0c-3.389-.842-3.88-3.928-1.426-9.235a39.874,39.874,0,0,0,2.01-10.614Z" transform="translate(-23.255 -85.033)" fill="#454b55" fill-rule="evenodd"/>
    <path id="Path_2823" data-name="Path 2823" d="M272.139,657.727c12.859-.187,18.772-.3,18.772-.3q1.651-12.028-5.985-13.91c-7.153-1.38-12.67,2.9-12.787,14.215Z" transform="translate(-23.745 -82.86)" fill="#585c65" fill-rule="evenodd"/>
    <path id="Path_2824" data-name="Path 2824" d="M272.492,643.905q9.574-16.377,21.041.21.879,6.1-11.806,5.331c-6.008-.281-9.1-2.127-9.235-5.541Z" transform="translate(-23.795 -81.804)" fill="#1c1c29" fill-rule="evenodd"/>
    <path id="Path_2825" data-name="Path 2825" d="M274.847,576.985q26.3-5.682,26.3-5.658c-.491,4.512-.514,5.635.725,8.907,2.619,5.612,1.332,16.319-3.413,25.835q-7.082,12.66-9.469,37.1c-10.24.561-15.36.818-15.36.818,1.917-12.016,2.314-23.5.4-34.32-3.46-17.207-2.711-26.4.82-32.684Z" transform="translate(-23.695 -72.724)" fill="#eaa192" fill-rule="evenodd"/>
    <path id="Path_2826" data-name="Path 2826" d="M300.327,593.639c.327-5.658-.843-9.773-4.137-9.072-9.937,1.24-15.641,2.6-14.637,14.027.843,10.873-.513,22.07-1.332,30.51-.047,2.619,1.285,4.185,4.021,4.746,2.385.28,5.237-.584,6.078-5.354,1.777-16.085,9.609-22.21,10.007-34.858Z" transform="translate(-24.884 -74.578)" fill="#f1aa9d" fill-rule="evenodd"/>
    <path id="Path_2827" data-name="Path 2827" d="M272.127,658.73q17.534-.035,17.534-.046a15.905,15.905,0,0,0,.656,7.668q5.434,10.415-.4,12.227a158.992,158.992,0,0,1-18.353,0q-5.12-1.263-1.45-9.235a38.977,38.977,0,0,0,2.01-10.614Z" transform="translate(-23.244 -85.033)" fill="#454b55" fill-rule="evenodd"/>
    <path id="Path_2828" data-name="Path 2828" d="M272.139,657.727c12.859-.187,18.772-.3,18.772-.3q1.651-12.028-5.985-13.91c-7.153-1.38-12.67,2.9-12.787,14.215Z" transform="translate(-23.745 -82.86)" fill="#585c65" fill-rule="evenodd"/>
    <path id="Path_2829" data-name="Path 2829" d="M274.066,578.928q27.53-3.613,27.518-3.6c.3,4.535,1.565,7.388,1.729,9.514.631,5.587-2.268,20.223-9.983,50.757q-10.729-10.206-21.041-.21c-.28-26.255-1.238-39.3-1.238-39.3.069-5.659.466-12.882,3.015-17.16Z" transform="translate(-23.592 -73.287)" fill="#282c37" fill-rule="evenodd"/>
    <path id="Path_2830" data-name="Path 2830" d="M292.419,629.885c2.384-1.168,9.142-36.213,8.205-42.269-.537-3.155-2.175-4.746-5.353-4.535-8.253.655-12.765,2.689-12.788,5.985-1.544,24.851-2.6,37.874.654,39.3,4.35.49,7.365,2.221,9.282,1.519Z" transform="translate(-24.995 -74.377)" fill="#30343f" fill-rule="evenodd"/>
    <path id="Path_2831" data-name="Path 2831" d="M248.92,643.905q-9.573-16.377-21.042.21c-.585,4.069,3.367,5.845,11.807,5.331,6.032-.281,9.1-2.127,9.234-5.541Z" transform="translate(-17.5 -81.804)" fill="#1c1c29" fill-rule="evenodd"/>
    <path id="Path_2832" data-name="Path 2832" d="M244.848,576.985q-26.3-5.682-26.3-5.658c.492,4.512.539,5.635-.7,8.907-2.619,5.612-1.357,16.319,3.389,25.835q7.085,12.66,9.493,37.1c10.239.561,15.36.818,15.36.818-1.917-12.016-2.314-23.5-.421-34.32,3.46-17.207,2.735-26.4-.818-32.684Z" transform="translate(-15.905 -72.724)" fill="#eaa192" fill-rule="evenodd"/>
    <path id="Path_2833" data-name="Path 2833" d="M221.239,593.639c-.326-5.658.842-9.773,4.115-9.072,9.959,1.24,15.664,2.6,14.635,14.027-.817,10.873.515,22.07,1.332,30.51.07,2.619-1.285,4.185-4.021,4.746-2.361.28-5.215-.584-6.079-5.354-1.777-16.085-9.609-22.21-9.983-34.858Z" transform="translate(-16.565 -74.578)" fill="#f1aa9d" fill-rule="evenodd"/>
    <path id="Path_2834" data-name="Path 2834" d="M245.5,578.928q-27.493-3.613-27.517-3.6c-.3,4.535-1.568,7.388-1.73,9.514-.631,5.587,2.268,20.223,9.982,50.757q10.73-10.206,21.042-.21c.282-26.255,1.24-39.3,1.24-39.3-.047-5.659-.444-12.882-3.016-17.16Z" transform="translate(-15.858 -73.287)" fill="#282c37" fill-rule="evenodd"/>
    <path id="Path_2835" data-name="Path 2835" d="M281.756,392.6q-19.148,20.2-41.077.655,9.294-8.381,5.868-22.421,25.988-1.718,26-1.73c-1.939,5.214-1.449,12.507.492,17.511,1.12,2.923,5.679,3.367,8.72,5.985Z" transform="translate(-19.312 -44.227)" fill="#fec2b5" fill-rule="evenodd"/>
    <path id="Path_2836" data-name="Path 2836" d="M183.606,449.028H315.067c2.243,0,3.132,2.034,4.067,4.068l9.678,21.509c1.076,2.362-2.126,4.722-4.746,4.722H174.582c-2.6,0-5.8-2.361-4.746-4.722l9.7-21.509c.911-2.033,1.823-4.068,4.067-4.068Z" transform="translate(-9.3 -55.49)" fill="#454b55" fill-rule="evenodd"/>
    <path id="Path_2837" data-name="Path 2837" d="M248.693,658.73q-17.536-.035-17.534-.046a15.935,15.935,0,0,1-.678,7.668q-5.437,10.415.42,12.227a159.02,159.02,0,0,0,18.353,0c3.414-.842,3.881-3.928,1.449-9.235a38.119,38.119,0,0,1-2.01-10.614Z" transform="translate(-17.506 -85.033)" fill="#454b55" fill-rule="evenodd"/>
    <path id="Path_2838" data-name="Path 2838" d="M249.607,657.727c-12.858-.187-18.773-.3-18.773-.3-1.1-8.019.912-12.648,5.985-13.91,7.179-1.38,12.7,2.9,12.788,14.215Z" transform="translate(-17.884 -82.86)" fill="#585c65" fill-rule="evenodd"/>
    <rect id="Rectangle_212" data-name="Rectangle 212" width="7.223" height="80.821" transform="translate(236.424 501.9)" fill="#282c37"/>
    <path id="Path_2839" data-name="Path 2839" d="M229.115,663.365h24.618v7.2H229.115q-21.463-.772-20.971,18.049c-4.817-.421-7.225-.608-7.225-.608q-.244-24.829,28.2-24.641Z" transform="translate(-13.709 -85.693)" fill="#282c37" fill-rule="evenodd"/>
    <path id="Path_2840" data-name="Path 2840" d="M204.154,700.533a6.652,6.652,0,1,0-6.662-6.639,6.665,6.665,0,0,0,6.662,6.639Z" transform="translate(-13.226 -89.056)" fill="#454b55" fill-rule="evenodd"/>
    <path id="Path_2841" data-name="Path 2841" d="M203.311,699.631c-6.616-.491-5.587-11.129.8-11.176,2.829.047,4.279,2.994,4.325,8.02-.14,1.871-2.2,3.18-5.12,3.156Z" transform="translate(-13.412 -89.228)" fill="#686c74" fill-rule="evenodd"/>
    <path id="Path_2842" data-name="Path 2842" d="M204.994,696.277a1.543,1.543,0,0,0,0-3.087,1.543,1.543,0,0,0,0,3.087Z" transform="translate(-14.066 -89.895)" fill="#282c37" fill-rule="evenodd"/>
    <rect id="Rectangle_213" data-name="Rectangle 213" width="11.549" height="147.406" transform="translate(119.505 439.478)" fill="#6c7072"/>
    <rect id="Rectangle_214" data-name="Rectangle 214" width="10.099" height="115.049" transform="translate(149.617 439.478)" fill="#585c5e"/>
    <path id="Path_2843" data-name="Path 2843" d="M281.262,699.182c5.145.07,7.715.116,7.715.116q.6-19.077-5.962-24.243s-5.307-3.6-15.9-10.824c-3.133-.585-4.722-.865-4.722-.865v7.2q13.712,8.837,13.7,8.838,5.995,5.225,5.166,19.78Z" transform="translate(-22.372 -85.693)" fill="#282c37" fill-rule="evenodd"/>
    <path id="Path_2844" data-name="Path 2844" d="M255.012,558.241c-18.89-.164-30.439-2.174-35.816-4.629-5.215-2.455-8.674-.865-9.189,3.39-.21,6.429,2.033,11.433,7.108,15.1,5.868,4.606,19.053,6.686,37.9,6.148,18.843.539,32.03-1.542,37.9-6.148,5.1-3.67,7.317-8.674,7.107-15.1-.491-4.255-3.975-5.845-9.165-3.39-5.4,2.454-16.927,4.465-35.84,4.629Z" transform="translate(-14.988 -70.064)" fill="#454b55" fill-rule="evenodd"/>
    <path id="Path_2845" data-name="Path 2845" d="M287.036,663.365H262.4v7.2h24.64q21.463-.772,20.972,18.049c4.816-.421,7.225-.608,7.225-.608q.245-24.829-28.2-24.641Z" transform="translate(-22.372 -85.693)" fill="#282c37" fill-rule="evenodd"/>
    <path id="Path_2846" data-name="Path 2846" d="M318.479,700.533a6.652,6.652,0,1,0-6.663-6.639,6.649,6.649,0,0,0,6.663,6.639Z" transform="translate(-29.336 -89.056)" fill="#454b55" fill-rule="evenodd"/>
    <path id="Path_2847" data-name="Path 2847" d="M319.929,699.631c6.617-.491,5.588-11.129-.795-11.176-2.827.047-4.277,2.994-4.325,8.02.14,1.871,2.2,3.18,5.119,3.156Z" transform="translate(-29.758 -89.228)" fill="#686c74" fill-rule="evenodd"/>
    <path id="Path_2848" data-name="Path 2848" d="M319.319,696.277a1.543,1.543,0,0,0,0-3.087,1.543,1.543,0,0,0,0,3.087Z" transform="translate(-30.176 -89.895)" fill="#282c37" fill-rule="evenodd"/>
    <path id="Path_2849" data-name="Path 2849" d="M351.994,452.333c-.537,2.315-.77,3.694.539,3.694h16.81c1.333,0,1.076-1.379.539-3.694-1.918-7.645-15.969-7.645-17.887,0Z" transform="translate(-34.937 -55.148)" fill="#c4c7ca" fill-rule="evenodd"/>
    <path id="Path_2850" data-name="Path 2850" d="M356.717,456.457c.094-3.273-.887-5.54-2.923-6.8a6.717,6.717,0,0,0-1.8,3.11c-.537,2.315-.77,3.694.539,3.694Z" transform="translate(-34.937 -55.578)" fill="#454b55" fill-rule="evenodd"/>
    <path id="Path_2851" data-name="Path 2851" d="M367.386,456.457c-.094-3.273.889-5.54,2.923-6.8a6.5,6.5,0,0,1,1.8,3.11c.537,2.315.795,3.694-.539,3.694Z" transform="translate(-37.165 -55.578)" fill="#454b55" fill-rule="evenodd"/>
    <path id="Path_2852" data-name="Path 2852" d="M351.6,455.668h18.679c.117,1.053-.069,1.637-.935,1.637h-16.81c-.865,0-1.052-.583-.935-1.637Z" transform="translate(-34.937 -56.426)" fill="#454b55" fill-rule="evenodd"/>
    <path id="Path_2853" data-name="Path 2853" d="M287.649,710.684a6.651,6.651,0,1,0-6.639-6.639,6.669,6.669,0,0,0,6.639,6.639Z" transform="translate(-24.995 -90.486)" fill="#454b55" fill-rule="evenodd"/>
    <path id="Path_2854" data-name="Path 2854" d="M286.806,709.781c-6.593-.513-5.564-11.129.8-11.175,2.852.046,4.278,2.993,4.349,8.02-.141,1.87-2.222,3.18-5.144,3.155Z" transform="translate(-25.18 -90.659)" fill="#686c74" fill-rule="evenodd"/>
    <path id="Path_2855" data-name="Path 2855" d="M288.485,706.425a1.555,1.555,0,0,0,0-3.11,1.555,1.555,0,0,0,0,3.11Z" transform="translate(-25.831 -91.322)" fill="#282c37" fill-rule="evenodd"/>
    <path id="Path_2856" data-name="Path 2856" d="M272.269,377.261c-5.917,6.406-18.47,11.269-23.847.654a29.986,29.986,0,0,0-.912-7.083l22.538-1.5h.093l.282-.023.28-.023h.257l.258-.023.234-.023h.21l.211-.024h.21l.165-.023h.186l.165-.023h.139l.141-.024h.21l.094-.023h.3l.023-.023-.046.141a23.383,23.383,0,0,0-1.192,8.019Z" transform="translate(-20.274 -44.227)" fill="#f1aa9d" fill-rule="evenodd"/>
    <path id="Path_2857" data-name="Path 2857" d="M306.6,291.536q-49.485-59.161-114.768.046,2.594,50.92,41.216,64.457c14.261,3.412,28.8,2.922,38.833-.983,24.361-9.843,35.888-32.942,34.719-63.521Z" transform="translate(-12.429 -29.131)" fill="#fecdbb" fill-rule="evenodd"/>
    <path id="Path_2858" data-name="Path 2858" d="M229.226,629.885c-2.385-1.168-9.142-36.213-8.184-42.269.515-3.155,2.175-4.746,5.331-4.535,8.254.655,12.767,2.689,12.789,5.985,1.566,24.851,2.594,37.874-.655,39.3-4.349.49-7.342,2.221-9.282,1.519Z" transform="translate(-16.532 -74.377)" fill="#30343f" fill-rule="evenodd"/>
    <path id="Path_2859" data-name="Path 2859" d="M206.663,527.866q1.227,19.779,13.7,25.461,9.468,6.943,34.181,6.2,24.724.734,34.18-6.2,12.486-5.682,13.723-25.461Z" transform="translate(-14.519 -66.599)" fill="#282c37" fill-rule="evenodd"/>
    <path id="Path_2860" data-name="Path 2860" d="M250.755,393.413q-12.1.035-13.677-3.929c-9.352,6.149-18.095,9.772-26.162,10.849-4.534,1.823-9.328,8.7-14.447,20.62q-16.412,38.225-15.875,38.552c-4.3,13.3,9.166,15.477,25.67,15.876q-3.716,17.323-3.531,29.691H298.8q.177-12.38-3.553-29.691c6.9-18.587,26.863-8.464,25.67-15.876q.562-.314-15.874-38.552-7.644-17.885-14.425-20.62-12.131-1.615-26.16-10.849-1.579,3.964-13.7,3.929Z" transform="translate(-10.731 -47.1)" fill="#206769" fill-rule="evenodd"/>
    <path id="Path_2861" data-name="Path 2861" d="M306.6,291.536q-49.485-59.161-114.768.046,2.594,50.92,41.216,64.457c14.261,3.412,28.8,2.922,38.833-.983,24.361-9.843,35.888-32.942,34.719-63.521Z" transform="translate(-12.429 -29.131)" fill="#fecdbb" fill-rule="evenodd"/>
    <path id="Path_2862" data-name="Path 2862" d="M288.318,220.963c.211.14.445.3.655.467,2.549-1.847,3.834-4.045,3.811-6.64q11.678,9.854,12.673,18.89c2.759-1.122,4.137-1.707,4.137-1.707,14.8,42.9.023,109.017-48.676,115.8q-3.262-1.718-11.642-2.642a34.949,34.949,0,0,0-5.776,3.53,10.3,10.3,0,0,0-1.8-.514c-42.293-1.824-75.468-61.067-67.145-98.964a15.634,15.634,0,0,0,5.1,6.406q-.947-17.324,8.884-29.084a17.011,17.011,0,0,0,2.081,6.242q3.086-12.625,10.007-16.622c.748,2.454,1.566,3.857,2.454,4.161q8.91-15.255,25.3-18.89c.959,3.834,2.15,6.032,3.6,6.593,2.875-3.974,3.367-9.142,1.519-15.476,7.154,3.2,11.036,7.177,11.69,11.9a18.5,18.5,0,0,0,5.494-9.445q2.559,5.366,2.454,8.487c3.952-2.806,7.739-3.858,11.316-3.2-.981,3.951-1.028,6.476-.186,7.551q8.555-.631,12.858-4.536,9.854,11.257,11.2,17.7Z" transform="translate(-9.813 -19.344)" fill="#351614" fill-rule="evenodd"/>
    <path id="Path_2863" data-name="Path 2863" d="M313.8,303.724c-26.115,75.21-104.295,71.563-135.6-.889,9.655,30.394,34.693,59.593,64.2,60.856,1.893.163,3.062,2.6,2.033,5.073.981-1.448,3.086-3.553,2.97-4.722,2.384.539,1.052,3.039.8,6.476,2.618-1.1,5.47-3.015,6.124-6.124.117,2.244.935,3.694,2.431,4.371.141-2.267.935-3.834,2.361-4.769h0c30.394-3.647,50.2-29.154,54.684-60.271Z" transform="translate(-10.507 -34.89)" fill="#20120f" fill-rule="evenodd"/>
    <path id="Path_2864" data-name="Path 2864" d="M232.3,252.212c2.594-.351-27.565,2.829-16.529-9.071,3.764-4.862,2.711-7.06-3.2-6.616-5.051.631-6.266-.679-3.694-3.858,5.752-11.619,2.572-15.36,22.935-24.291q-1.965,4.278,6.99,7.295c1.333,1.589.725,3.413-1.8,5.494q-6.979,6.067,1.449,8.276c5.213,2.338,5.634,4.839,1.309,7.551-5.564,2.712-6.1,5-1.613,6.921q10.556,3.892,9.4,9.935c-1.215,4.232-3.857,6.125-7.925,5.728q-6.1-.666-3.437-3.156,2.1-5.156-3.881-4.209Z" transform="translate(-14.645 -21.579)" fill="#4b3229" fill-rule="evenodd"/>
    <path id="Path_2865" data-name="Path 2865" d="M285.079,253.412c-2.526-.608,27.19,5.424,17.324-7.481q-4.946-7.786,3.81-6.266,7.435,1.649,4.045-3.507c-1.216-3.155-1.005-8.86-2.69-13.746-1.5,3.3-3.692,4.886-6.592,4.746-1.544-4.349-4.957-10.076-10.217-17.231-3.18,5.377-14.074,5.495-7.411,12.134,4.232,4.466,3.507,7.178-2.245,8.113q-8.064,2.736-2.01,7.364,7.925,4.84.958,7.061c-7.246,1.917-10.683,4.91-10.288,9.024.82,4.3,3.274,6.453,7.343,6.429,4.091-.07,5.331-1.005,3.717-2.829-1.076-3.53.35-4.816,4.255-3.811Z" transform="translate(-23.406 -21.798)" fill="#4b3229" fill-rule="evenodd"/>
    <path id="Path_2866" data-name="Path 2866" d="M362.92,459.651c-5.54,1.894-8.93.748-10.147-3.484a30.121,30.121,0,0,1,.864-7.527c1.567-2.712,10.638-2.549,13.983.982,1.449,2.126-.866,6.125-4.7,10.029Z" transform="translate(-35.107 -55.172)" fill="#fec2b5" fill-rule="evenodd"/>
    <path id="Path_2867" data-name="Path 2867" d="M333.922,449.028c-4,22.585-8.906,25.2-8.906,25.2.046,3.367,5.7,9.959,11.619,9.889,15.36-.21,19.076-13.022,25.459-24.781q-4.279-7.191-13.842-3.951-9.08,10.1-14.33-6.36Z" transform="translate(-31.196 -55.49)" fill="#206769" fill-rule="evenodd"/>
    <path id="Path_2868" data-name="Path 2868" d="M368.135,450.181q-14.344-1.929-14.356-1.917a7.977,7.977,0,0,1,2.362-3.764,2.112,2.112,0,0,1,2.431-.024c.28.375.047,1.169-.117,1.849-.024.093.046.163.117.093.561-1.73,1.123-2.268,1.707-2.314,1.472.046,2.127.35,1.986,1.308-.28.865-.35,1.286-.21,1.216.445-.8.7-1.264.725-1.333.513-.981,2.923-.187,2.852.4a12.622,12.622,0,0,1-.188,1.661c-.094.4.141.163.141.163.491-.584,1.123-1.309,1.38-1.309.887.141,1.4.421,1.542.748.3.631-.3,1.846-.373,3.226Z" transform="translate(-35.249 -54.796)" fill="#fec2b5" fill-rule="evenodd"/>
    <path id="Path_2869" data-name="Path 2869" d="M197.921,428.6c-.724,27.1-2.314,42.34-1.052,68.852.4,20.457,10.123,26.792,29.691,29.083a191.519,191.519,0,0,0,53.093,0c19.546-2.29,29.295-8.626,29.693-29.083,1.262-26.511-.351-41.755-1.076-68.852-.327-29.575-110-29.575-110.35,0Z" transform="translate(-13.072 -49.486)" fill="#454b55" fill-rule="evenodd"/>
    <path id="Path_2870" data-name="Path 2870" d="M243.277,418.03c-17.417-.116-35.723,2.759-38.341,17.348-3.507,22.35-2.128,41.1-2.759,59.64-1.333,14.7,7.411,23.051,21.7,25.016a119.252,119.252,0,0,0,38.809,0c14.284-1.965,23.028-10.311,21.7-25.016q-.911-27.81-10.544-59.266c-4.231-14.588-13.14-17.838-30.557-17.722Z" transform="translate(-13.868 -51.122)" fill="#4d535c" fill-rule="evenodd"/>
    <path id="Path_2871" data-name="Path 2871" d="M259.235,490.121h1.239a15,15,0,0,1,14.938,14.94v62.024a4.747,4.747,0,0,1-4.745,4.746H249.017a4.764,4.764,0,0,1-4.746-4.746V505.061a15,15,0,0,1,14.964-14.94Z" transform="translate(-19.818 -61.281)" fill="#343849" fill-rule="evenodd"/>
    <path id="Path_2872" data-name="Path 2872" d="M257.164,495.074h.817a10.017,10.017,0,0,1,10.007,10.007v60.2a3.182,3.182,0,0,1-3.179,3.179H250.335a3.182,3.182,0,0,1-3.179-3.179v-60.2a10.033,10.033,0,0,1,10.008-10.007Z" transform="translate(-20.225 -61.979)" fill="#3d4250" fill-rule="evenodd"/>
    <rect id="Rectangle_215" data-name="Rectangle 215" width="11.549" height="147.406" transform="translate(344.506 439.478)" fill="#6c7072"/>
    <path id="Path_2873" data-name="Path 2873" d="M224.729,136.586H289.84a5.343,5.343,0,0,1,5.33,5.331v27.821a5.328,5.328,0,0,1-5.33,5.331H224.729a5.327,5.327,0,0,1-5.331-5.331V141.917a5.343,5.343,0,0,1,5.331-5.331Z" transform="translate(166.687 168.537)" fill="#6c8aa7" fill-rule="evenodd"/>
    <path id="Path_2874" data-name="Path 2874" d="M233.386,167.968v-17.02h3.9A2.875,2.875,0,0,1,240,152.164a7.126,7.126,0,0,1,.772,3.576v.35a8.368,8.368,0,0,1-.725,3.857,2.8,2.8,0,0,1-2.665,1.31h-1.4v6.71Zm2.6-8.861h.887a1.007,1.007,0,0,0,1.052-.631,7.6,7.6,0,0,0,.257-2.408v-.327a6.531,6.531,0,0,0-.257-2.151,1.032,1.032,0,0,0-1.028-.655h-.911Zm8.182,8.861v-6.8l-2.851-10.217h2.478l1.683,6.36h.046l1.5-6.36h2.455l-2.711,10.217v6.8Zm7.553,0V153.192h-1.989v-2.245H256.2v2.245h-1.917v14.775Zm5.912,0v-17.02h2.6v6.9h2.315v-6.9h2.594v17.02H262.54v-7.926h-2.315v7.926Zm12.462-4.723a7.061,7.061,0,0,0,.211,2.082,1.031,1.031,0,0,0,1.869-.024,6.793,6.793,0,0,0,.234-2.057v-7.925a5.29,5.29,0,0,0-.234-1.777.873.873,0,0,0-.887-.561.961.961,0,0,0-.936.561,4.638,4.638,0,0,0-.257,1.753ZM275,163.2a6.408,6.408,0,0,1-.887,3.717,3.248,3.248,0,0,1-2.852,1.24,3.352,3.352,0,0,1-2.876-1.24,6.224,6.224,0,0,1-.911-3.717v-7.762c0-3.133,1.285-4.7,3.811-4.7a3.284,3.284,0,0,1,2.852,1.192,6.057,6.057,0,0,1,.864,3.507Zm2.339,4.77v-17.02h2.033l3.6,10.217-.186-4.653v-5.564h2.337v17.02H283.3L279.583,157.4l.141,4.466v6.1Z" transform="translate(164.716 166.543)" fill="#fff"/>
    <path id="Path_2875" data-name="Path 2875" d="M173.726,71h33.947a5.533,5.533,0,0,1,5.517,5.54v28.874a5.533,5.533,0,0,1-5.517,5.54H173.726a5.534,5.534,0,0,1-5.518-5.54V76.541A5.534,5.534,0,0,1,173.726,71Z" transform="translate(173.9 177.778)" fill="#6c8aa7" fill-rule="evenodd"/>
    <path id="Path_2876" data-name="Path 2876" d="M186.6,96.889a6.707,6.707,0,0,1-.936,3.951,4.13,4.13,0,0,1-6.032-.094,6.5,6.5,0,0,1-1.005-3.928v-8c0-2.735.7-4.442,2.15-5.12a4.673,4.673,0,0,1,1.917-.374c2.572,0,3.857,1.637,3.857,4.886V90.74h-2.688V88.4a6.655,6.655,0,0,0-.234-2.034.927.927,0,0,0-.959-.607.963.963,0,0,0-.959.631,5.341,5.341,0,0,0-.281,1.987v8.58a5.632,5.632,0,0,0,.281,2.1.934.934,0,0,0,.935.655.984.984,0,0,0,.959-.655,6.557,6.557,0,0,0,.258-2.128V94.294H186.6Zm1.917-.164V95.088h2.642v1.847a6.331,6.331,0,0,0,.258,2.151.953.953,0,0,0,.981.631.933.933,0,0,0,.959-.515,4.073,4.073,0,0,0,.234-1.66,4.647,4.647,0,0,0-.421-2.034,7.025,7.025,0,0,0-1.332-1.777l-1.356-1.4a8.374,8.374,0,0,1-1.472-2.058,6.642,6.642,0,0,1,.351-5.845,3.675,3.675,0,0,1,3.016-1.1,3.074,3.074,0,0,1,2.9,1.285,7.443,7.443,0,0,1,.748,3.765V89.5h-2.572V88.191a5.449,5.449,0,0,0-.234-1.917.846.846,0,0,0-.865-.561,1.1,1.1,0,0,0-.959.42,2.486,2.486,0,0,0-.28,1.31,2.717,2.717,0,0,0,.3,1.4,6.69,6.69,0,0,0,1.052,1.332l1.5,1.637a9.637,9.637,0,0,1,1.729,2.5,6.708,6.708,0,0,1,.584,2.759,6.894,6.894,0,0,1-.865,3.81,3.465,3.465,0,0,1-3.039,1.216,3.212,3.212,0,0,1-3.016-1.379,7.7,7.7,0,0,1-.842-4Zm9.422,0V95.088h2.664v1.847a5.784,5.784,0,0,0,.258,2.151.955.955,0,0,0,.983.631.9.9,0,0,0,.935-.515,4.091,4.091,0,0,0,.233-1.66,4.659,4.659,0,0,0-.4-2.034,7.031,7.031,0,0,0-1.333-1.777l-1.357-1.4a8.447,8.447,0,0,1-1.473-2.058,6.442,6.442,0,0,1,.352-5.845,3.673,3.673,0,0,1,3.015-1.1,3.073,3.073,0,0,1,2.9,1.285,7.7,7.7,0,0,1,.748,3.765V89.5H202.9V88.191a6.091,6.091,0,0,0-.234-1.917.878.878,0,0,0-.889-.561,1.058,1.058,0,0,0-.935.42,2.477,2.477,0,0,0-.28,1.31,2.99,2.99,0,0,0,.28,1.4,8.986,8.986,0,0,0,1.052,1.332l1.519,1.637a9.523,9.523,0,0,1,1.707,2.5,6.357,6.357,0,0,1,.585,2.759,6.706,6.706,0,0,1-.866,3.81,3.449,3.449,0,0,1-3.016,1.216,3.208,3.208,0,0,1-3.015-1.379,7.462,7.462,0,0,1-.865-4Z" transform="translate(172.431 176.041)" fill="#fff"/>
    <path id="Path_2877" data-name="Path 2877" d="M310.308,71h33.924a5.533,5.533,0,0,1,5.517,5.54v28.874a5.533,5.533,0,0,1-5.517,5.54H310.308a5.537,5.537,0,0,1-5.54-5.54V76.541a5.537,5.537,0,0,1,5.54-5.54Z" transform="translate(154.657 177.778)" fill="#6c8aa7" fill-rule="evenodd"/>
    <path id="Path_2878" data-name="Path 2878" d="M324.454,96.916a6.792,6.792,0,0,1-.96,4,3.471,3.471,0,0,1-3.015,1.286,3.6,3.6,0,0,1-3.085-1.379,6.607,6.607,0,0,1-1.005-3.975V88.756c0-2.759.7-4.489,2.174-5.19a4.351,4.351,0,0,1,1.94-.374c2.6,0,3.9,1.637,3.9,4.933V90.7h-2.735V88.313a6.205,6.205,0,0,0-.235-2.058.954.954,0,0,0-.959-.608.98.98,0,0,0-.981.655,5.337,5.337,0,0,0-.28,2.011v8.672a5.939,5.939,0,0,0,.28,2.151,1.035,1.035,0,0,0,1.916-.023,6,6,0,0,0,.259-2.151V94.3h2.782Zm4.209.631V95.092h-2.314V93.223h2.314V90.768h1.917v2.455h2.314v1.869H330.58v2.455Zm8.532,0V95.092h-2.314V93.223h2.314V90.768h1.918v2.455h2.315v1.869h-2.315v2.455Z" transform="translate(153.02 176.06)" fill="#fff"/>
    <rect id="Rectangle_216" data-name="Rectangle 216" width="4.745" height="38.155" transform="translate(421.598 266.968)" fill="#b0c8d9"/>
    <path id="Path_2879" data-name="Path 2879" d="M367.5,155.227c-13.373-.3-14.331,14.191-6.288,21.6,1.683,2.1,2.245,7.014,2.081,12.391,2.431.4,3.787.491,4.045.258q.384.351,4.067-.21c-.139-5.377.491-10.287,2.2-12.391,8.112-7.318,7.294-21.813-6.1-21.649Z" transform="translate(-35.575 -14.089)" fill="#ffae52" fill-rule="evenodd"/>
    <path id="Path_2880" data-name="Path 2880" d="M366.606,184.351a.711.711,0,0,1-.678.748.73.73,0,0,1-.771-.678,34.785,34.785,0,0,0-1.052-7.575,16.669,16.669,0,0,0-2.29-5.283.7.7,0,0,1,.162-.982.71.71,0,0,1,1.005.163,18.107,18.107,0,0,1,2.526,5.751,38.537,38.537,0,0,1,1.1,7.855Z" transform="translate(-36.363 -16.234)" fill="#fffe9b"/>
    <path id="Path_2881" data-name="Path 2881" d="M372.487,184.454a.714.714,0,0,1-1.427-.07,38.317,38.317,0,0,1,1.17-7.855,18.038,18.038,0,0,1,2.57-5.728.738.738,0,0,1,1.007-.163.713.713,0,0,1,.162,1.005,17.127,17.127,0,0,0-2.361,5.26,37.1,37.1,0,0,0-1.122,7.552Z" transform="translate(-37.684 -16.243)" fill="#fffe9b"/>
    <path id="Path_2882" data-name="Path 2882" d="M363.507,171.391a.707.707,0,0,1-.864.537.725.725,0,0,1-.539-.865,3.574,3.574,0,0,1,.281-.795,2.512,2.512,0,0,1,1.146-1.332,1.92,1.92,0,0,0,2.525-1.286,3.524,3.524,0,0,1,2.267-.584.714.714,0,1,1-.047,1.426,2.32,2.32,0,0,0-1.356.3,1.259,1.259,0,0,0-.466.958l-.07.21a.7.7,0,0,1-.936.375c-.186-.07-.349-.118-.49-.164a1.207,1.207,0,0,0-.772.023,1.413,1.413,0,0,0-.491.631c-.069.164-.116.351-.186.562Zm2.947-1.637v0Z" transform="translate(-36.419 -15.758)" fill="#fffe9b"/>
    <path id="Path_2883" data-name="Path 2883" d="M375.35,171.133a.686.686,0,0,1-.537.842.719.719,0,0,1-.866-.538,3.361,3.361,0,0,0-.163-.561,1.3,1.3,0,0,0-.491-.631,1.061,1.061,0,0,0-.771-.024,1.715,1.715,0,0,0-.491.164.734.734,0,0,1-.936-.4.692.692,0,0,1-.046-.21,1.3,1.3,0,0,0-.468-.959,2.307,2.307,0,0,0-1.356-.327.713.713,0,1,1-.024-1.426,3.506,3.506,0,0,1,2.246.607,2.4,2.4,0,0,1,.842,1.123,2.321,2.321,0,0,1,1.66.186,2.438,2.438,0,0,1,1.146,1.332,4.413,4.413,0,0,1,.257.819Zm-4.3-1.356a.694.694,0,0,1,.421-.726Zm0,0Z" transform="translate(-37.32 -15.758)" fill="#fffe9b"/>
    <path id="Path_2884" data-name="Path 2884" d="M363.7,186.66l9.118.046a1.413,1.413,0,0,1,1.4,1.426h0a1.428,1.428,0,0,1-1.426,1.4l-9.118-.046a1.446,1.446,0,0,1-1.4-1.427h0a1.414,1.414,0,0,1,1.429-1.4Z" transform="translate(-36.445 -18.519)" fill="#b0c8d9" fill-rule="evenodd"/>
    <path id="Path_2885" data-name="Path 2885" d="M363.67,189.953l9.118.046a1.408,1.408,0,0,1,1.4,1.4h0a1.408,1.408,0,0,1-1.4,1.4l-9.142-.047a1.408,1.408,0,0,1-1.4-1.4h0a1.412,1.412,0,0,1,1.428-1.4Z" transform="translate(-36.442 -18.983)" fill="#b0c8d9" fill-rule="evenodd"/>
    <path id="Path_2886" data-name="Path 2886" d="M363.647,193.218l9.142.047a1.412,1.412,0,0,1,1.4,1.426h0a1.407,1.407,0,0,1-1.426,1.379l-9.117-.023a1.444,1.444,0,0,1-1.4-1.426h0a1.408,1.408,0,0,1,1.4-1.4Z" transform="translate(-36.442 -19.443)" fill="#b0c8d9" fill-rule="evenodd"/>
    <path id="Path_2887" data-name="Path 2887" d="M366.258,196.511l4.63.023a1.412,1.412,0,0,1,1.4,1.426h0a1.393,1.393,0,0,1-1.426,1.38h-4.606a1.413,1.413,0,0,1-1.4-1.426h0a1.408,1.408,0,0,1,1.4-1.4Z" transform="translate(-36.81 -19.907)" fill="#b0c8d9" fill-rule="evenodd"/>
    <path id="Path_2888" data-name="Path 2888" d="M369.3,145.4h0a.571.571,0,0,1,.563.561l-.024,5.541a.574.574,0,0,1-.585.561h0a.574.574,0,0,1-.561-.584l.047-5.518a.569.569,0,0,1,.56-.561Z" transform="translate(-37.351 -12.706)" fill="#ffae52" fill-rule="evenodd"/>
    <path id="Path_2889" data-name="Path 2889" d="M352.826,151.393h0a.579.579,0,0,1,.794.024l3.787,4.021a.554.554,0,0,1-.023.795h0a.556.556,0,0,1-.794-.023l-3.787-4.021a.557.557,0,0,1,.023-.8Z" transform="translate(-35.089 -13.529)" fill="#ffae52" fill-rule="evenodd"/>
    <path id="Path_2890" data-name="Path 2890" d="M346.16,166.328h0a.536.536,0,0,1,.584-.515l5.519.257a.593.593,0,0,1,.537.608h0a.557.557,0,0,1-.607.514l-5.519-.257a.557.557,0,0,1-.514-.607Z" transform="translate(-34.175 -15.582)" fill="#ffae52" fill-rule="evenodd"/>
    <path id="Path_2891" data-name="Path 2891" d="M350.768,181.44h0a.583.583,0,0,1,.092-.795l4.373-3.367a.582.582,0,0,1,.8.094h0a.582.582,0,0,1-.094.795l-4.373,3.39a.562.562,0,0,1-.794-.117Z" transform="translate(-34.808 -17.181)" fill="#ffae52" fill-rule="evenodd"/>
    <path id="Path_2892" data-name="Path 2892" d="M385.108,151.556h0a.558.558,0,0,0-.8.023l-3.834,3.975a.581.581,0,0,0,0,.795h0a.557.557,0,0,0,.8-.024l3.834-3.974a.581.581,0,0,0,0-.795Z" transform="translate(-38.989 -13.551)" fill="#ffae52" fill-rule="evenodd"/>
    <path id="Path_2893" data-name="Path 2893" d="M391.358,166.569h0a.559.559,0,0,0-.609-.537l-5.493.21a.59.59,0,0,0-.561.585h0a.569.569,0,0,0,.584.538l5.519-.211a.588.588,0,0,0,.56-.584Z" transform="translate(-39.605 -15.612)" fill="#ffae52" fill-rule="evenodd"/>
    <path id="Path_2894" data-name="Path 2894" d="M386.759,181.623h0a.54.54,0,0,0-.093-.8l-4.326-3.413a.563.563,0,0,0-.8.094h0a.585.585,0,0,0,.095.795l4.349,3.413a.553.553,0,0,0,.771-.093Z" transform="translate(-39.145 -17.199)" fill="#ffae52" fill-rule="evenodd"/>
    <rect id="Rectangle_217" data-name="Rectangle 217" width="16.576" height="16.576" transform="translate(148.097 143.616)" fill="#6c8aa7"/>
    <rect id="Rectangle_218" data-name="Rectangle 218" width="4.583" height="4.582" transform="translate(150.131 148.011)" fill="#282c37"/>
    <rect id="Rectangle_219" data-name="Rectangle 219" width="4.583" height="4.582" transform="translate(158.057 148.011)" fill="#282c37"/>
    <rect id="Rectangle_220" data-name="Rectangle 220" width="10.405" height="5.939" transform="translate(151.183 160.191)" fill="#6c8aa7"/>
    <rect id="Rectangle_221" data-name="Rectangle 221" width="30.696" height="12.251" transform="translate(141.037 166.13)" fill="#6c8aa7"/>
    <rect id="Rectangle_222" data-name="Rectangle 222" width="8.675" height="11.268" transform="translate(143.257 178.381)" fill="#6c8aa7"/>
    <rect id="Rectangle_223" data-name="Rectangle 223" width="13.49" height="3.951" transform="translate(138.442 189.649)" fill="#282c37"/>
    <rect id="Rectangle_224" data-name="Rectangle 224" width="8.65" height="11.268" transform="translate(161.33 178.381)" fill="#6c8aa7"/>
    <rect id="Rectangle_225" data-name="Rectangle 225" width="13.466" height="3.951" transform="translate(156.514 189.649)" fill="#282c37"/>
    <rect id="Rectangle_226" data-name="Rectangle 226" width="8.533" height="5.214" transform="translate(132.504 166.13)" fill="#6c8aa7"/>
    <rect id="Rectangle_227" data-name="Rectangle 227" width="5.191" height="13.116" transform="translate(130.843 158.228)" fill="#6c8aa7"/>
    <rect id="Rectangle_228" data-name="Rectangle 228" width="5.19" height="4.769" transform="translate(127.056 153.458)" fill="#282c37"/>
    <rect id="Rectangle_229" data-name="Rectangle 229" width="5.191" height="4.769" transform="translate(134.303 153.365)" fill="#282c37"/>
    <rect id="Rectangle_230" data-name="Rectangle 230" width="8.534" height="5.214" transform="translate(171.733 166.13)" fill="#6c8aa7"/>
    <rect id="Rectangle_231" data-name="Rectangle 231" width="5.191" height="13.116" transform="translate(176.924 166.13)" fill="#6c8aa7"/>
    <rect id="Rectangle_232" data-name="Rectangle 232" width="5.191" height="4.769" transform="translate(173.65 179.246)" fill="#282c37"/>
    <rect id="Rectangle_233" data-name="Rectangle 233" width="5.191" height="4.769" transform="translate(180.687 179.246)" fill="#282c37"/>
    <rect id="Rectangle_234" data-name="Rectangle 234" width="22.747" height="4.699" transform="translate(145.012 169.917)" fill="#f92f4d"/>
    <path id="Path_2895" data-name="Path 2895" d="M138.6,142.8c-17-12.3-14.892-30.7,0-30.159,14.869-.538,16.973,17.862,0,30.159Z" transform="translate(179.76 171.913)" fill="#f92f4d" fill-rule="evenodd"/>
    <path id="Path_2896" data-name="Path 2896" d="M333.873,212.769c-11.9-8.627-10.428-21.532,0-21.158,10.427-.374,11.9,12.532,0,21.158Z" transform="translate(-31.263 -19.216)" fill="#f92f4d" fill-rule="evenodd"/>
    <path id="Path_2897" data-name="Path 2897" d="M235.91,77.125c-12.3-8.931-10.776-22.256,0-21.883,10.778-.374,12.3,12.952,0,21.883Z" transform="translate(165.581 180)" fill="#b0c8d9" fill-rule="evenodd"/>
  </g>
</svg>
